<?xml version="1.0" encoding="UTF-8"?>
<!DOCTYPE svg PUBLIC "-//W3C//DTD SVG 1.1//EN" "http://www.w3.org/Graphics/SVG/1.1/DTD/svg11.dtd">
<svg xmlns="http://www.w3.org/2000/svg" version="1.1" width="1021px" height="1021px" style="shape-rendering:geometricPrecision; text-rendering:geometricPrecision; image-rendering:optimizeQuality; fill-rule:evenodd; clip-rule:evenodd" xmlns:xlink="http://www.w3.org/1999/xlink">

<g><path style="opacity:1" fill="#32485d" d="M 809.5,138.5 C 809.5,148.833 809.5,159.167 809.5,169.5C 806.103,162.944 800.769,158.778 793.5,157C 593.5,156.333 393.5,156.333 193.5,157C 183.657,159.023 176.657,164.523 172.5,173.5C 172.059,160.759 172.559,148.092 174,135.5C 178.298,128.435 184.465,123.935 192.5,122C 392.167,121.333 591.833,121.333 791.5,122C 801.546,123.217 807.546,128.717 809.5,138.5 Z"/></g>
<g><path style="opacity:1" fill="#2a3e4e" d="M 809.5,169.5 C 809.5,251.833 809.5,334.167 809.5,416.5C 597.167,416.5 384.833,416.5 172.5,416.5C 172.5,335.5 172.5,254.5 172.5,173.5C 176.657,164.523 183.657,159.023 193.5,157C 393.5,156.333 593.5,156.333 793.5,157C 800.769,158.778 806.103,162.944 809.5,169.5 Z"/></g>
<g><path style="opacity:1" fill="#2ab398" d="M 236.5,197.5 C 320.998,196.501 405.665,196.167 490.5,196.5C 490.5,256.5 490.5,316.5 490.5,376.5C 490.167,376.5 489.833,376.5 489.5,376.5C 489.5,316.833 489.5,257.167 489.5,197.5C 405.167,197.5 320.833,197.5 236.5,197.5 Z"/></g>
<g><path style="opacity:1" fill="#24a086" d="M 490.5,196.5 C 577.536,196.013 664.536,196.513 751.5,198C 758.835,200.67 763.335,205.837 765,213.5C 765.667,261.167 765.667,308.833 765,356.5C 762.756,365.745 757.256,372.245 748.5,376C 662.501,376.5 576.501,376.667 490.5,376.5C 490.5,316.5 490.5,256.5 490.5,196.5 Z"/></g>
<g><path style="opacity:1" fill="#2cbc9e" d="M 236.5,197.5 C 320.833,197.5 405.167,197.5 489.5,197.5C 489.5,257.167 489.5,316.833 489.5,376.5C 404.833,376.667 320.166,376.5 235.5,376C 226.157,372.656 220.323,366.156 218,356.5C 217.333,309.167 217.333,261.833 218,214.5C 221.184,205.479 227.351,199.812 236.5,197.5 Z"/></g>
<g><path style="opacity:1" fill="#32485d" d="M 809.5,138.5 C 810.167,138.5 810.5,138.833 810.5,139.5C 810.667,384.834 810.5,630.167 810,875.5C 807.61,893.39 797.444,901.39 779.5,899.5C 772.833,899.5 766.167,899.5 759.5,899.5C 752.833,899.5 746.167,899.5 739.5,899.5C 732.833,899.5 726.167,899.5 719.5,899.5C 712.833,899.5 706.167,899.5 699.5,899.5C 692.833,899.5 686.167,899.5 679.5,899.5C 672.833,899.5 666.167,899.5 659.5,899.5C 652.833,899.5 646.167,899.5 639.5,899.5C 632.833,899.5 626.167,899.5 619.5,899.5C 612.833,899.5 606.167,899.5 599.5,899.5C 592.833,899.5 586.167,899.5 579.5,899.5C 572.833,899.5 566.167,899.5 559.5,899.5C 552.833,899.5 546.167,899.5 539.5,899.5C 532.833,899.5 526.167,899.5 519.5,899.5C 512.833,899.5 506.167,899.5 499.5,899.5C 492.833,899.5 486.167,899.5 479.5,899.5C 472.833,899.5 466.167,899.5 459.5,899.5C 452.833,899.5 446.167,899.5 439.5,899.5C 432.833,899.5 426.167,899.5 419.5,899.5C 412.833,899.5 406.167,899.5 399.5,899.5C 392.833,899.5 386.167,899.5 379.5,899.5C 372.833,899.5 366.167,899.5 359.5,899.5C 352.833,899.5 346.167,899.5 339.5,899.5C 332.833,899.5 326.167,899.5 319.5,899.5C 312.833,899.5 306.167,899.5 299.5,899.5C 292.833,899.5 286.167,899.5 279.5,899.5C 272.833,899.5 266.167,899.5 259.5,899.5C 252.833,899.5 246.167,899.5 239.5,899.5C 232.833,899.5 226.167,899.5 219.5,899.5C 212.833,899.5 206.167,899.5 199.5,899.5C 185.843,897.188 176.843,889.521 172.5,876.5C 172.5,723.167 172.5,569.833 172.5,416.5C 384.833,416.5 597.167,416.5 809.5,416.5C 809.5,334.167 809.5,251.833 809.5,169.5C 809.5,159.167 809.5,148.833 809.5,138.5 Z"/></g>
<g><path style="opacity:1" fill="#ebeff0" d="M 314.5,484.5 C 314.5,491.5 314.5,498.5 314.5,505.5C 306.795,505.775 301.295,509.441 298,516.5C 297.5,526.494 297.334,536.494 297.5,546.5C 290.159,546.334 282.826,546.5 275.5,547C 262.647,553.326 260.147,562.493 268,574.5C 270.251,576.377 272.751,577.877 275.5,579C 282.826,579.5 290.159,579.666 297.5,579.5C 297.099,587.585 297.599,595.585 299,603.5C 301.245,608.538 305.078,611.538 310.5,612.5C 311.568,613.434 312.901,613.768 314.5,613.5C 314.5,621.833 314.5,630.167 314.5,638.5C 295.167,638.5 275.833,638.5 256.5,638.5C 246.924,636.092 240.757,630.092 238,620.5C 237.017,580.107 237.351,539.774 239,499.5C 242.643,492.522 248.143,487.689 255.5,485C 275.164,484.5 294.831,484.333 314.5,484.5 Z"/></g>
<g><path style="opacity:1" fill="#bcc2c6" d="M 314.5,484.5 C 334.836,484.333 355.169,484.5 375.5,485C 384.515,486.424 390.015,491.591 392,500.5C 392.667,540.167 392.667,579.833 392,619.5C 389.667,629.165 383.834,635.665 374.5,639C 334.998,639.831 295.665,639.665 256.5,638.5C 275.833,638.5 295.167,638.5 314.5,638.5C 314.5,630.167 314.5,621.833 314.5,613.5C 312.901,613.768 311.568,613.434 310.5,612.5C 319.729,613.808 325.896,610.141 329,601.5C 329.5,594.174 329.666,586.841 329.5,579.5C 340.231,579.903 350.898,579.403 361.5,578C 373.819,569.1 374.485,559.434 363.5,549C 361.5,548.333 359.5,547.667 357.5,547C 348.173,546.5 338.839,546.334 329.5,546.5C 329.666,536.494 329.5,526.494 329,516.5C 326.302,509.963 321.468,506.296 314.5,505.5C 314.5,498.5 314.5,491.5 314.5,484.5 Z"/></g>
<g><path style="opacity:1" fill="#ebeff0" d="M 504.5,484.5 C 504.5,505.833 504.5,527.167 504.5,548.5C 491.989,548.171 479.655,548.505 467.5,549.5C 459.2,551.304 454.533,556.47 453.5,565C 454.085,574.077 458.751,579.577 467.5,581.5C 479.655,582.495 491.989,582.829 504.5,582.5C 504.5,601.167 504.5,619.833 504.5,638.5C 485.5,638.5 466.5,638.5 447.5,638.5C 436.928,636.429 430.428,630.095 428,619.5C 427.018,579.774 427.351,540.107 429,500.5C 432.255,492.911 437.755,487.744 445.5,485C 465.164,484.5 484.831,484.333 504.5,484.5 Z"/></g>
<g><path style="opacity:1" fill="#bcc2c6" d="M 504.5,484.5 C 525.503,484.333 546.503,484.5 567.5,485C 574.974,487.14 579.807,491.974 582,499.5C 582.977,540.88 582.644,582.213 581,623.5C 577.745,631.089 572.245,636.256 564.5,639C 525.331,639.831 486.331,639.665 447.5,638.5C 466.5,638.5 485.5,638.5 504.5,638.5C 504.5,619.833 504.5,601.167 504.5,582.5C 491.989,582.829 479.655,582.495 467.5,581.5C 494.835,581.667 522.169,581.5 549.5,581C 557.113,578.464 561.113,573.131 561.5,565C 560.767,557.873 557.1,552.873 550.5,550C 522.835,549.5 495.169,549.333 467.5,549.5C 479.655,548.505 491.989,548.171 504.5,548.5C 504.5,527.167 504.5,505.833 504.5,484.5 Z"/></g>
<g><path style="opacity:1" fill="#ed483c" d="M 695.5,484.5 C 695.5,530.167 695.5,575.833 695.5,621.5C 682.496,621.333 669.496,621.5 656.5,622C 644.636,626.593 641.136,634.76 646,646.5C 648.592,649.762 651.759,652.262 655.5,654C 668.829,654.5 682.163,654.667 695.5,654.5C 695.5,656.833 695.5,659.167 695.5,661.5C 682.496,661.333 669.496,661.5 656.5,662C 644.63,666.617 641.13,674.784 646,686.5C 648.592,689.762 651.759,692.262 655.5,694C 668.829,694.5 682.163,694.667 695.5,694.5C 695.5,740.167 695.5,785.833 695.5,831.5C 675.497,831.667 655.497,831.5 635.5,831C 626.166,827.665 620.333,821.165 618,811.5C 617.833,760.167 617.667,708.833 617.5,657.5C 617.34,605.109 617.84,552.776 619,500.5C 622.23,492.937 627.73,487.771 635.5,485C 655.497,484.5 675.497,484.333 695.5,484.5 Z"/></g>
<g><path style="opacity:1" fill="#c5352b" d="M 695.5,484.5 C 716.169,484.333 736.836,484.5 757.5,485C 763.841,486.675 768.341,490.508 771,496.5C 772.16,549.609 772.66,602.776 772.5,656C 772.333,708.167 772.167,760.333 772,812.5C 769.832,821.688 764.332,827.855 755.5,831C 735.503,831.5 715.503,831.667 695.5,831.5C 695.5,785.833 695.5,740.167 695.5,694.5C 710.17,694.667 724.837,694.5 739.5,694C 752.353,687.674 754.853,678.507 747,666.5C 745.167,665.333 743.333,664.167 741.5,663C 726.225,661.565 710.891,661.065 695.5,661.5C 695.5,659.167 695.5,656.833 695.5,654.5C 710.17,654.667 724.837,654.5 739.5,654C 752.353,647.674 754.853,638.507 747,626.5C 745.167,625.333 743.333,624.167 741.5,623C 726.225,621.565 710.891,621.065 695.5,621.5C 695.5,575.833 695.5,530.167 695.5,484.5 Z"/></g>
<g><path style="opacity:1" fill="#33495e" d="M 314.5,505.5 C 321.468,506.296 326.302,509.963 329,516.5C 329.5,526.494 329.666,536.494 329.5,546.5C 338.839,546.334 348.173,546.5 357.5,547C 359.5,547.667 361.5,548.333 363.5,549C 374.485,559.434 373.819,569.1 361.5,578C 350.898,579.403 340.231,579.903 329.5,579.5C 329.666,586.841 329.5,594.174 329,601.5C 325.896,610.141 319.729,613.808 310.5,612.5C 305.078,611.538 301.245,608.538 299,603.5C 297.599,595.585 297.099,587.585 297.5,579.5C 290.159,579.666 282.826,579.5 275.5,579C 272.751,577.877 270.251,576.377 268,574.5C 260.147,562.493 262.647,553.326 275.5,547C 282.826,546.5 290.159,546.334 297.5,546.5C 297.334,536.494 297.5,526.494 298,516.5C 301.295,509.441 306.795,505.775 314.5,505.5 Z"/></g>
<g><path style="opacity:1" fill="#32485d" d="M 467.5,549.5 C 495.169,549.333 522.835,549.5 550.5,550C 557.1,552.873 560.767,557.873 561.5,565C 561.113,573.131 557.113,578.464 549.5,581C 522.169,581.5 494.835,581.667 467.5,581.5C 458.751,579.577 454.085,574.077 453.5,565C 454.533,556.47 459.2,551.304 467.5,549.5 Z"/></g>
<g><path style="opacity:1" fill="#ebeded" d="M 695.5,621.5 C 710.891,621.065 726.225,621.565 741.5,623C 743.333,624.167 745.167,625.333 747,626.5C 754.853,638.507 752.353,647.674 739.5,654C 724.837,654.5 710.17,654.667 695.5,654.5C 682.163,654.667 668.829,654.5 655.5,654C 651.759,652.262 648.592,649.762 646,646.5C 641.136,634.76 644.636,626.593 656.5,622C 669.496,621.5 682.496,621.333 695.5,621.5 Z"/></g>
<g><path style="opacity:1" fill="#ebeded" d="M 695.5,661.5 C 710.891,661.065 726.225,661.565 741.5,663C 743.333,664.167 745.167,665.333 747,666.5C 754.853,678.507 752.353,687.674 739.5,694C 724.837,694.5 710.17,694.667 695.5,694.5C 682.163,694.667 668.829,694.5 655.5,694C 651.759,692.262 648.592,689.762 646,686.5C 641.13,674.784 644.63,666.617 656.5,662C 669.496,661.5 682.496,661.333 695.5,661.5 Z"/></g>
<g><path style="opacity:1" fill="#ebeff0" d="M 257.5,677.5 C 276.5,677.5 295.5,677.5 314.5,677.5C 314.83,695.674 314.497,713.674 313.5,731.5C 308.702,727.203 304.035,722.703 299.5,718C 290.478,713.544 282.644,715.044 276,722.5C 272.442,729.035 272.775,735.369 277,741.5C 282.167,746.667 287.333,751.833 292.5,757C 285.211,763.283 279.044,770.449 274,778.5C 274.351,796.097 282.851,801.93 299.5,796C 304.035,791.297 308.702,786.797 313.5,782.5C 314.496,798.658 314.83,814.991 314.5,831.5C 295.833,831.5 277.167,831.5 258.5,831.5C 248.437,829.275 241.603,823.275 238,813.5C 237.333,774.167 237.333,734.833 238,695.5C 240.835,685.497 247.335,679.497 257.5,677.5 Z"/></g>
<g><path style="opacity:1" fill="#bbc1c5" d="M 257.5,677.5 C 295.998,676.335 334.664,676.169 373.5,677C 383.034,678.204 389.2,683.371 392,692.5C 392.667,732.5 392.667,772.5 392,812.5C 389.322,822.387 383.156,828.887 373.5,832C 334.998,832.831 296.664,832.664 258.5,831.5C 277.167,831.5 295.833,831.5 314.5,831.5C 314.83,814.991 314.496,798.658 313.5,782.5C 314.002,780.915 315.002,780.415 316.5,781C 321.833,786.333 327.167,791.667 332.5,797C 339.433,801.599 346.433,801.599 353.5,797C 360.25,790.092 361.084,782.592 356,774.5C 350.167,768.667 344.333,762.833 338.5,757C 345.739,750.431 352.239,743.265 358,735.5C 361.217,725.051 357.717,717.884 347.5,714C 341.982,712.713 336.982,713.713 332.5,717C 327.167,722.333 321.833,727.667 316.5,733C 315.002,733.585 314.002,733.085 313.5,731.5C 314.497,713.674 314.83,695.674 314.5,677.5C 295.5,677.5 276.5,677.5 257.5,677.5 Z"/></g>
<g><path style="opacity:1" fill="#ebeff0" d="M 447.5,677.5 C 466.5,677.5 485.5,677.5 504.5,677.5C 504.5,683.167 504.5,688.833 504.5,694.5C 492.063,699.401 489.23,707.735 496,719.5C 498.603,722.278 501.77,723.944 505.5,724.5C 505.5,729.5 505.5,734.5 505.5,739.5C 491.829,739.333 478.163,739.5 464.5,740C 451.498,748.016 450.164,757.683 460.5,769C 462.65,770.411 464.984,771.245 467.5,771.5C 479.989,772.495 492.656,772.829 505.5,772.5C 505.5,775.5 505.5,778.5 505.5,781.5C 493.518,785.797 490.018,793.797 495,805.5C 497.612,809.219 501.112,811.552 505.5,812.5C 505.5,818.833 505.5,825.167 505.5,831.5C 486.5,831.5 467.5,831.5 448.5,831.5C 438.037,829.208 431.204,822.875 428,812.5C 427.333,773.5 427.333,734.5 428,695.5C 431.162,685.836 437.662,679.836 447.5,677.5 Z"/></g>
<g><path style="opacity:1" fill="#bac1c5" d="M 447.5,677.5 C 485.998,676.335 524.664,676.169 563.5,677C 573.034,678.204 579.2,683.371 582,692.5C 582.667,732.833 582.667,773.167 582,813.5C 579.067,823.434 572.567,829.6 562.5,832C 524.331,832.831 486.331,832.664 448.5,831.5C 467.5,831.5 486.5,831.5 505.5,831.5C 505.5,825.167 505.5,818.833 505.5,812.5C 521.021,811.117 526.187,803.117 521,788.5C 517.111,783.305 511.944,780.971 505.5,781.5C 505.5,778.5 505.5,775.5 505.5,772.5C 492.656,772.829 479.989,772.495 467.5,771.5C 494.835,771.667 522.169,771.5 549.5,771C 558.326,767.523 562.159,761.023 561,751.5C 559.066,745.233 554.9,741.399 548.5,740C 534.171,739.5 519.837,739.333 505.5,739.5C 505.5,734.5 505.5,729.5 505.5,724.5C 516.506,725.162 522.506,719.995 523.5,709C 521.976,697.985 515.642,693.151 504.5,694.5C 504.5,688.833 504.5,683.167 504.5,677.5C 485.5,677.5 466.5,677.5 447.5,677.5 Z"/></g>
<g><path style="opacity:1" fill="#34495e" d="M 504.5,694.5 C 515.642,693.151 521.976,697.985 523.5,709C 522.506,719.995 516.506,725.162 505.5,724.5C 501.77,723.944 498.603,722.278 496,719.5C 489.23,707.735 492.063,699.401 504.5,694.5 Z"/></g>
<g><path style="opacity:1" fill="#33495d" d="M 313.5,782.5 C 308.702,786.797 304.035,791.297 299.5,796C 282.851,801.93 274.351,796.097 274,778.5C 279.044,770.449 285.211,763.283 292.5,757C 287.333,751.833 282.167,746.667 277,741.5C 272.775,735.369 272.442,729.035 276,722.5C 282.644,715.044 290.478,713.544 299.5,718C 304.035,722.703 308.702,727.203 313.5,731.5C 314.002,733.085 315.002,733.585 316.5,733C 321.833,727.667 327.167,722.333 332.5,717C 336.982,713.713 341.982,712.713 347.5,714C 357.717,717.884 361.217,725.051 358,735.5C 352.239,743.265 345.739,750.431 338.5,757C 344.333,762.833 350.167,768.667 356,774.5C 361.084,782.592 360.25,790.092 353.5,797C 346.433,801.599 339.433,801.599 332.5,797C 327.167,791.667 321.833,786.333 316.5,781C 315.002,780.415 314.002,780.915 313.5,782.5 Z"/></g>
<g><path style="opacity:1" fill="#32485d" d="M 505.5,739.5 C 519.837,739.333 534.171,739.5 548.5,740C 554.9,741.399 559.066,745.233 561,751.5C 562.159,761.023 558.326,767.523 549.5,771C 522.169,771.5 494.835,771.667 467.5,771.5C 464.984,771.245 462.65,770.411 460.5,769C 450.164,757.683 451.498,748.016 464.5,740C 478.163,739.5 491.829,739.333 505.5,739.5 Z"/></g>
<g><path style="opacity:1" fill="#354a5f" d="M 505.5,781.5 C 511.944,780.971 517.111,783.305 521,788.5C 526.187,803.117 521.021,811.117 505.5,812.5C 501.112,811.552 497.612,809.219 495,805.5C 490.018,793.797 493.518,785.797 505.5,781.5 Z"/></g>
</svg>
